<svg width="60" height="60" viewBox="0 0 60 60" fill="none" xmlns="http://www.w3.org/2000/svg">
<rect y="0.706055" width="60" height="59.1987" rx="8" fill="#017EFA"/>
<path d="M30 15.5059C21.729 15.5059 15 22.145 15 30.3055C15 38.4661 21.729 45.1052 30 45.1052C38.271 45.1052 45 38.4661 45 30.3055C45 22.145 38.271 15.5059 30 15.5059ZM30 42.1453C23.3835 42.1453 18 36.8337 18 30.3055C18 23.7774 23.3835 18.4658 30 18.4658C36.6165 18.4658 42 23.7774 42 30.3055C42 36.8337 36.6165 42.1453 30 42.1453Z" fill="white"/>
<path d="M31.5 21.4258L22.5 31.7855H28.5V39.1854L37.5 28.8256H31.5V21.4258Z" fill="white"/>
</svg>
