<svg width="111" height="37" viewBox="0 0 111 37" fill="none" xmlns="http://www.w3.org/2000/svg">
<rect width="40" height="37" rx="8" fill="#017EFA"/>
<path d="M20 9.25C14.486 9.25 10 13.3995 10 18.5C10 23.6005 14.486 27.75 20 27.75C25.514 27.75 30 23.6005 30 18.5C30 13.3995 25.514 9.25 20 9.25ZM20 25.9C15.589 25.9 12 22.5802 12 18.5C12 14.4198 15.589 11.1 20 11.1C24.411 11.1 28 14.4198 28 18.5C28 22.5802 24.411 25.9 20 25.9Z" fill="white"/>
<path d="M21 12.9497L15 19.4247H19V24.0497L25 17.5747H21V12.9497Z" fill="white"/>
<path d="M64.56 11.7498V18.1818H59.28V11.7498H55.44V28.5498H59.28V21.8778H64.56V28.5498H68.4V11.7498H64.56ZM74.3798 23.9898H82.8998C82.9958 23.5338 83.0438 23.0538 83.0438 22.5498C83.0438 18.9258 80.4518 16.2138 76.9478 16.2138C73.1558 16.2138 70.5638 18.9738 70.5638 22.5498C70.5638 26.1258 73.1078 28.8858 77.2118 28.8858C79.4918 28.8858 81.2678 28.0458 82.4438 26.4138L79.5638 24.7578C79.0838 25.2858 78.2438 25.6698 77.2598 25.6698C75.9398 25.6698 74.8358 25.2378 74.3798 23.9898ZM74.3078 21.3018C74.6438 20.0778 75.5558 19.4058 76.9238 19.4058C78.0038 19.4058 79.0838 19.9098 79.4678 21.3018H74.3078ZM85.0856 28.5498H88.6856V11.0298H85.0856V28.5498ZM91.32 28.5498H94.92V11.0298H91.32V28.5498ZM103.314 28.8858C106.842 28.8858 109.674 26.1258 109.674 22.5498C109.674 18.9738 106.842 16.2138 103.314 16.2138C99.7864 16.2138 96.9544 18.9738 96.9544 22.5498C96.9544 26.1258 99.7864 28.8858 103.314 28.8858ZM103.314 25.3818C101.754 25.3818 100.554 24.2538 100.554 22.5498C100.554 20.8458 101.754 19.7178 103.314 19.7178C104.874 19.7178 106.074 20.8458 106.074 22.5498C106.074 24.2538 104.874 25.3818 103.314 25.3818Z" fill="#017EFA"/>
</svg>
