<svg width="40" height="37" viewBox="0 0 40 37" fill="none" xmlns="http://www.w3.org/2000/svg">
<rect width="40" height="37" rx="8" fill="#017EFA"/>
<path d="M20 9.25C14.486 9.25 10 13.3995 10 18.5C10 23.6005 14.486 27.75 20 27.75C25.514 27.75 30 23.6005 30 18.5C30 13.3995 25.514 9.25 20 9.25ZM20 25.9C15.589 25.9 12 22.5802 12 18.5C12 14.4198 15.589 11.1 20 11.1C24.411 11.1 28 14.4198 28 18.5C28 22.5802 24.411 25.9 20 25.9Z" fill="white"/>
<path d="M21 12.95L15 19.425H19V24.05L25 17.575H21V12.95Z" fill="white"/>
</svg>
